<?xml version="1.0" encoding="utf-8"?>
<!-- Generator: Adobe Illustrator 23.0.2, SVG Export Plug-In . SVG Version: 6.00 Build 0)  -->
<svg version="1.1" id="Capa_1" xmlns="http://www.w3.org/2000/svg" xmlns:xlink="http://www.w3.org/1999/xlink" x="0px" y="0px"
	 viewBox="0 0 116.22 116.22" style="enable-background:new 0 0 116.22 116.22;" xml:space="preserve">
<style type="text/css">
	.st0{fill:#FFFFFF;stroke:#000000;stroke-width:0.7395;stroke-linecap:round;stroke-linejoin:round;stroke-miterlimit:10;}
	.st1{fill:none;stroke:#000000;stroke-width:2.958;stroke-linecap:round;stroke-linejoin:round;stroke-miterlimit:10;}
</style>
<g>
	<line class="st0" x1="111.51" y1="58.11" x2="4.85" y2="58.11"/>
	<path d="M32.17,63.9c-0.45-0.94-1.07-1.78-1.86-2.55c-0.78-0.76-1.69-1.46-2.73-2.09c-0.09-0.05-0.18-0.11-0.27-0.16h-8.12
		c0.68,0.38,1.39,0.77,2.14,1.14c1.07,0.54,2.07,1.06,3,1.55c0.92,0.49,1.73,1.01,2.4,1.54c0.68,0.53,1.21,1.12,1.6,1.76
		c0.38,0.65,0.57,1.41,0.57,2.29c0,1.62-0.57,2.87-1.73,3.73c-1.15,0.87-2.89,1.3-5.23,1.3c-0.67,0-1.41-0.07-2.21-0.21
		c-0.8-0.13-1.59-0.33-2.39-0.57c-0.79-0.25-1.54-0.55-2.25-0.92c-0.72-0.35-1.33-0.77-1.84-1.21v4.47
		c0.42,0.29,0.99,0.54,1.69,0.78c0.69,0.23,1.44,0.42,2.22,0.58c0.78,0.16,1.55,0.29,2.3,0.36c0.76,0.08,1.39,0.13,1.9,0.13
		c1.53,0,2.99-0.16,4.38-0.46c1.38-0.32,2.6-0.81,3.67-1.51c1.06-0.69,1.9-1.59,2.52-2.69s0.94-2.46,0.94-4.05
		C32.86,65.91,32.63,64.84,32.17,63.9z"/>
	<path d="M93.34,59.1h-8.25v16.18h3.79V59.35h0.1c0.1,0.2,0.38,0.57,0.86,1.12l12.49,14.81h5.28L93.34,59.1z"/>
	<g>
		<path d="M15.9,46.45c-0.4,0.62-0.61,1.37-0.61,2.26c0,0.83,0.16,1.54,0.46,2.14c0.32,0.6,0.77,1.15,1.37,1.65
			c0.6,0.5,1.33,0.99,2.2,1.45c0.87,0.46,1.86,0.98,2.99,1.53c1.06,0.52,2.07,1.07,3.03,1.66h-8.12c-0.35-0.2-0.69-0.39-1.02-0.59
			c-0.98-0.58-1.82-1.23-2.55-1.94c-0.72-0.7-1.29-1.51-1.7-2.41c-0.41-0.89-0.62-1.94-0.62-3.15c0-1.47,0.32-2.75,0.97-3.85
			s1.5-1.99,2.55-2.7c1.05-0.7,2.25-1.23,3.6-1.58c1.34-0.35,2.72-0.51,4.11-0.51c3.19,0,5.52,0.37,6.98,1.14v4.27
			c-1.91-1.32-4.37-1.99-7.37-1.99c-0.82,0-1.65,0.09-2.47,0.27c-0.83,0.17-1.57,0.45-2.22,0.85C16.84,45.33,16.3,45.83,15.9,46.45z
			"/>
		<path d="M92.76,56.47l-0.42,0.66h-7.25V40.94h3.79v15.21h0.1c0.21-0.33,0.49-0.7,0.86-1.1l12.09-14.11h4.72L92.76,56.47z"/>
	</g>
	<g>
		<rect x="61.71" y="40.94" width="16.43" height="3.6"/>
		<rect x="61.71" y="56.31" width="12.62" height="3.6"/>
		<rect x="61.71" y="71.68" width="16.43" height="3.6"/>
	</g>
	<g>
		<rect x="38.33" y="40.94" width="16.43" height="3.6"/>
		<rect x="38.33" y="56.31" width="12.62" height="3.6"/>
		<rect x="38.33" y="71.68" width="16.43" height="3.6"/>
	</g>
	<path class="st1" d="M20.55,114.22c-10.34,0-18.72-8.38-18.72-18.72"/>
	<path class="st1" d="M114.14,95.5c0,10.34-8.38,18.72-18.72,18.72"/>
	<path class="st1" d="M95.42,1.9c10.34,0,18.72,8.38,18.72,18.72"/>
	<path class="st1" d="M1.83,20.62c0-10.34,8.38-18.72,18.72-18.72"/>
</g>
</svg>
